<svg xmlns="http://www.w3.org/2000/svg" xmlns:svg="http://www.w3.org/2000/svg" id="svg2" width="622.192" height="160.708" version="1.0"><defs id="defs4"><marker id="Arrow1Send" orient="auto" refX="0" refY="0" style="overflow:visible"><path id="path4525" d="M 0,0 L 5,-5 L -12.5,0 L 5,5 L 0,0 z" transform="matrix(-0.2,0,0,-0.2,-1.2,0)" style="fill-rule:evenodd;stroke:#000;stroke-width:1pt;marker-start:none"/></marker><marker id="Arrow1Sstart" orient="auto" refX="0" refY="0" style="overflow:visible"><path id="path4522" d="M 0,0 L 5,-5 L -12.5,0 L 5,5 L 0,0 z" transform="matrix(0.2,0,0,0.2,1.2,0)" style="fill-rule:evenodd;stroke:#000;stroke-width:1pt;marker-start:none"/></marker><marker id="Arrow1Mstart" orient="auto" refX="0" refY="0" style="overflow:visible"><path id="path4516" d="M 0,0 L 5,-5 L -12.5,0 L 5,5 L 0,0 z" transform="matrix(0.4,0,0,0.4,4,0)" style="fill-rule:evenodd;stroke:#000;stroke-width:1pt;marker-start:none"/></marker><marker id="Arrow1Mend" orient="auto" refX="0" refY="0" style="overflow:visible"><path id="path4227" d="M 0,0 L 5,-5 L -12.5,0 L 5,5 L 0,0 z" transform="matrix(-0.4,0,0,-0.4,-4,0)" style="fill-rule:evenodd;stroke:#000;stroke-width:1pt;marker-start:none"/></marker><marker id="Arrow2Lend" orient="auto" refX="0" refY="0" style="overflow:visible"><path id="path4239" d="M 8.7185878,4.0337352 L -2.2072895,0.016013256 L 8.7185884,-4.0017078 C 6.97309,-1.6296469 6.9831476,1.6157441 8.7185878,4.0337352 z" transform="matrix(-1.1,0,0,-1.1,-1.1,0)" style="font-size:12px;fill-rule:evenodd;stroke-width:.625;stroke-linejoin:round"/></marker><marker id="Arrow1Lend" orient="auto" refX="0" refY="0" style="overflow:visible"><path id="path4221" d="M 0,0 L 5,-5 L -12.5,0 L 5,5 L 0,0 z" transform="matrix(-0.8,0,0,-0.8,-10,0)" style="fill-rule:evenodd;stroke:#000;stroke-width:1pt;marker-start:none"/></marker></defs><metadata id="metadata7"/><g id="layer1" transform="translate(-472.38483,-500.65106)"><g id="g3383" transform="matrix(-1,0,0,1,1548.2969,0)"><path id="path3385" d="M 529.14847,545.35953 L 569.14847,595.35953" style="fill:none;fill-rule:evenodd;stroke:#000;stroke-width:2;stroke-linecap:butt;stroke-linejoin:miter;stroke-miterlimit:4;stroke-dasharray:none;stroke-opacity:1"/><path style="fill:none;fill-rule:evenodd;stroke:#000;stroke-width:2;stroke-linecap:butt;stroke-linejoin:miter;stroke-miterlimit:4;stroke-dasharray:none;stroke-opacity:1" id="path3387" d="M 489.14847,565.35953 L 569.14847,595.35953"/><path id="path3389" d="M 489.14847,615.35953 L 569.14847,595.35953" style="fill:none;fill-rule:evenodd;stroke:#000;stroke-width:2;stroke-linecap:butt;stroke-linejoin:miter;stroke-miterlimit:4;stroke-dasharray:none;stroke-opacity:1"/><path style="fill:none;fill-rule:evenodd;stroke:#000;stroke-width:2;stroke-linecap:butt;stroke-linejoin:miter;stroke-miterlimit:4;stroke-dasharray:none;stroke-opacity:1" id="path3391" d="M 525.14847,640.35953 L 569.14847,595.35953"/><path style="opacity:1;fill:#0f0;fill-opacity:1;fill-rule:nonzero;stroke:#000;stroke-width:2;stroke-linecap:butt;stroke-miterlimit:4;stroke-dasharray:none;stroke-dashoffset:0;stroke-opacity:1" id="path3393" d="M 110,243 A 15,15 0 1 1 80,243 A 15,15 0 1 1 110,243 z" transform="translate(434.14847,297.35953)"/><path id="path3395" d="M 110,243 A 15,15 0 1 1 80,243 A 15,15 0 1 1 110,243 z" transform="translate(389.14847,322.35953)" style="opacity:1;fill:#0f0;fill-opacity:1;fill-rule:nonzero;stroke:#000;stroke-width:2;stroke-linecap:butt;stroke-miterlimit:4;stroke-dasharray:none;stroke-dashoffset:0;stroke-opacity:1"/><path style="opacity:1;fill:#0f0;fill-opacity:1;fill-rule:nonzero;stroke:#000;stroke-width:2;stroke-linecap:butt;stroke-miterlimit:4;stroke-dasharray:none;stroke-dashoffset:0;stroke-opacity:1" id="path3397" d="M 110,243 A 15,15 0 1 1 80,243 A 15,15 0 1 1 110,243 z" transform="translate(389.14847,372.35953)"/><path id="path3399" d="M 110,243 A 15,15 0 1 1 80,243 A 15,15 0 1 1 110,243 z" transform="translate(429.14847,402.35953)" style="opacity:1;fill:#0f0;fill-opacity:1;fill-rule:nonzero;stroke:#000;stroke-width:2;stroke-linecap:butt;stroke-miterlimit:4;stroke-dasharray:none;stroke-dashoffset:0;stroke-opacity:1"/></g><path style="fill:none;fill-rule:evenodd;stroke:#000;stroke-width:2;stroke-linecap:butt;stroke-linejoin:miter;stroke-miterlimit:4;stroke-dasharray:none;stroke-opacity:1" id="path3357" d="M 661.7199,595.35953 L 661.7199,595.35953 L 911.7199,595.35953"/><g id="g3317" transform="translate(199.8959,-10.208182)"><path id="path3288" d="M 260,323 A 35,35 0 1 1 190,323 A 35,35 0 1 1 260,323 z" transform="matrix(1.4315452,0,0,1.4315452,237.1549,143.07453)" style="opacity:1;fill:red;fill-opacity:1;fill-rule:nonzero;stroke:#000;stroke-width:1.39709187;stroke-linecap:butt;stroke-miterlimit:4;stroke-dasharray:none;stroke-dashoffset:0;stroke-opacity:1"/><text id="text3290" x="559.609" y="610.981" xml:space="preserve" style="font-size:20px;font-style:normal;font-variant:normal;font-weight:400;font-stretch:normal;text-align:center;line-height:100%;writing-mode:lr-tb;text-anchor:middle;fill:#fff;fill-opacity:1;stroke:none;stroke-width:1px;stroke-linecap:butt;stroke-linejoin:miter;stroke-opacity:1;font-family:Bitstream Vera Sans"><tspan id="tspan3292" x="559.609" y="610.981">ejabberd</tspan></text></g><g id="g3322" transform="matrix(0,-1,1,0,128.78895,1149.508)"><rect id="rect3294" width="110" height="40" x="180" y="428" transform="translate(319.14847,267.35953)" style="opacity:1;fill:#e0ffff;fill-opacity:1;fill-rule:nonzero;stroke:#000;stroke-width:2;stroke-linecap:butt;stroke-miterlimit:4;stroke-dasharray:none;stroke-dashoffset:0;stroke-opacity:1"/><text id="text3296" x="553.92" y="719.807" xml:space="preserve" style="font-size:18px;font-style:normal;font-variant:normal;font-weight:400;font-stretch:normal;text-align:center;line-height:100%;writing-mode:lr-tb;text-anchor:middle;fill:#000;fill-opacity:1;stroke:none;stroke-width:1px;stroke-linecap:butt;stroke-linejoin:miter;stroke-opacity:1;font-family:Bitstream Vera Sans"><tspan id="tspan3298" x="553.92" y="719.807">gateway</tspan></text></g><g id="g3311" transform="translate(-159.89592,-110.10408)"><g id="g3308"><path id="path3306" d="M 260,323 A 35,35 0 1 1 190,323 A 35,35 0 1 1 260,323 z" transform="matrix(1.4315452,0,0,1.4315452,766.94672,242.97043)" style="opacity:1;fill:#00f;fill-opacity:1;fill-rule:nonzero;stroke:#000;stroke-width:1.39709187;stroke-linecap:butt;stroke-miterlimit:4;stroke-dasharray:none;stroke-dashoffset:0;stroke-opacity:1"/></g><text id="text3300" x="1088.667" y="711.037" xml:space="preserve" style="font-size:18px;font-style:normal;font-variant:normal;font-weight:400;font-stretch:normal;text-align:center;line-height:100%;writing-mode:lr-tb;text-anchor:middle;fill:#fff;fill-opacity:1;stroke:none;stroke-width:1px;stroke-linecap:butt;stroke-linejoin:miter;stroke-opacity:1;font-family:Bitstream Vera Sans"><tspan id="tspan3302" x="1088.667" y="711.037">RabbitMQ</tspan></text></g><g id="g3345" transform="translate(15,-0.1040824)"><rect id="rect3327" width="110" height="80" x="250" y="288" transform="translate(319.14847,267.35953)" style="opacity:1;fill:#ffc0c0;fill-opacity:1;fill-rule:nonzero;stroke:#000;stroke-width:2;stroke-linecap:butt;stroke-miterlimit:4;stroke-dasharray:none;stroke-dashoffset:0;stroke-opacity:1"/><text id="text3329" x="624.153" y="582.734" xml:space="preserve" style="font-size:18px;font-style:normal;font-variant:normal;font-weight:400;font-stretch:normal;text-align:center;line-height:100%;writing-mode:lr-tb;text-anchor:middle;fill:#000;fill-opacity:1;stroke:none;stroke-width:1px;stroke-linecap:butt;stroke-linejoin:miter;stroke-opacity:1;font-family:Bitstream Vera Sans"><tspan id="tspan3331" x="624.153" y="582.734">XMPP</tspan><tspan id="tspan3333" x="624.153" y="600.734">network</tspan><tspan id="tspan3369" x="624.153" y="618.734">(internet)</tspan></text></g><text style="font-size:18px;font-style:normal;font-variant:normal;font-weight:400;font-stretch:normal;text-align:center;line-height:100%;writing-mode:lr-tb;text-anchor:middle;fill:#000;fill-opacity:1;stroke:none;stroke-width:1px;stroke-linecap:butt;stroke-linejoin:miter;stroke-opacity:1;font-family:Bitstream Vera Sans" id="text3335" x="528.942" y="515.36" xml:space="preserve"><tspan id="tspan3337" x="528.942" y="515.36">XMPP clients</tspan></text><text style="font-size:18px;font-style:normal;font-variant:normal;font-weight:400;font-stretch:normal;text-align:center;line-height:100%;writing-mode:lr-tb;text-anchor:middle;fill:#000;fill-opacity:1;stroke:none;stroke-width:1px;stroke-linecap:butt;stroke-linejoin:miter;stroke-opacity:1;font-family:Bitstream Vera Sans" id="text3339" x="1036.736" y="514.327" xml:space="preserve"><tspan id="tspan3341" x="1036.736" y="514.327">AMQP clients</tspan></text><g id="g3373" transform="translate(15,0)"><path style="fill:none;fill-rule:evenodd;stroke:#000;stroke-width:2;stroke-linecap:butt;stroke-linejoin:miter;stroke-miterlimit:4;stroke-dasharray:none;stroke-opacity:1" id="path3361" d="M 529.14847,545.35953 L 569.14847,595.35953"/><path id="path3363" d="M 489.14847,565.35953 L 569.14847,595.35953" style="fill:none;fill-rule:evenodd;stroke:#000;stroke-width:2;stroke-linecap:butt;stroke-linejoin:miter;stroke-miterlimit:4;stroke-dasharray:none;stroke-opacity:1"/><path style="fill:none;fill-rule:evenodd;stroke:#000;stroke-width:2;stroke-linecap:butt;stroke-linejoin:miter;stroke-miterlimit:4;stroke-dasharray:none;stroke-opacity:1" id="path3365" d="M 489.14847,615.35953 L 569.14847,595.35953"/><path id="path3367" d="M 525.14847,640.35953 L 569.14847,595.35953" style="fill:none;fill-rule:evenodd;stroke:#000;stroke-width:2;stroke-linecap:butt;stroke-linejoin:miter;stroke-miterlimit:4;stroke-dasharray:none;stroke-opacity:1"/><path id="path3343" d="M 110,243 A 15,15 0 1 1 80,243 A 15,15 0 1 1 110,243 z" transform="translate(434.14847,297.35953)" style="opacity:1;fill:#0f0;fill-opacity:1;fill-rule:nonzero;stroke:#000;stroke-width:2;stroke-linecap:butt;stroke-miterlimit:4;stroke-dasharray:none;stroke-dashoffset:0;stroke-opacity:1"/><path style="opacity:1;fill:#0f0;fill-opacity:1;fill-rule:nonzero;stroke:#000;stroke-width:2;stroke-linecap:butt;stroke-miterlimit:4;stroke-dasharray:none;stroke-dashoffset:0;stroke-opacity:1" id="path3355" d="M 110,243 A 15,15 0 1 1 80,243 A 15,15 0 1 1 110,243 z" transform="translate(389.14847,322.35953)"/><path id="path3353" d="M 110,243 A 15,15 0 1 1 80,243 A 15,15 0 1 1 110,243 z" transform="translate(389.14847,372.35953)" style="opacity:1;fill:#0f0;fill-opacity:1;fill-rule:nonzero;stroke:#000;stroke-width:2;stroke-linecap:butt;stroke-miterlimit:4;stroke-dasharray:none;stroke-dashoffset:0;stroke-opacity:1"/><path style="opacity:1;fill:#0f0;fill-opacity:1;fill-rule:nonzero;stroke:#000;stroke-width:2;stroke-linecap:butt;stroke-miterlimit:4;stroke-dasharray:none;stroke-dashoffset:0;stroke-opacity:1" id="path3351" d="M 110,243 A 15,15 0 1 1 80,243 A 15,15 0 1 1 110,243 z" transform="translate(429.14847,402.35953)"/></g></g></svg>