<svg xmlns="http://www.w3.org/2000/svg" xmlns:svg="http://www.w3.org/2000/svg" id="svg2" width="528.392" height="338.005" version="1.0"><defs id="defs4"><marker id="Arrow1Send" orient="auto" refX="0" refY="0" style="overflow:visible"><path id="path4525" d="M 0,0 L 5,-5 L -12.5,0 L 5,5 L 0,0 z" transform="matrix(-0.2,0,0,-0.2,-1.2,0)" style="fill-rule:evenodd;stroke:#000;stroke-width:1pt;marker-start:none"/></marker><marker id="Arrow1Sstart" orient="auto" refX="0" refY="0" style="overflow:visible"><path id="path4522" d="M 0,0 L 5,-5 L -12.5,0 L 5,5 L 0,0 z" transform="matrix(0.2,0,0,0.2,1.2,0)" style="fill-rule:evenodd;stroke:#000;stroke-width:1pt;marker-start:none"/></marker><marker id="Arrow1Mstart" orient="auto" refX="0" refY="0" style="overflow:visible"><path id="path4516" d="M 0,0 L 5,-5 L -12.5,0 L 5,5 L 0,0 z" transform="matrix(0.4,0,0,0.4,4,0)" style="fill-rule:evenodd;stroke:#000;stroke-width:1pt;marker-start:none"/></marker><marker id="Arrow1Mend" orient="auto" refX="0" refY="0" style="overflow:visible"><path id="path4227" d="M 0,0 L 5,-5 L -12.5,0 L 5,5 L 0,0 z" transform="matrix(-0.4,0,0,-0.4,-4,0)" style="fill-rule:evenodd;stroke:#000;stroke-width:1pt;marker-start:none"/></marker><marker id="Arrow2Lend" orient="auto" refX="0" refY="0" style="overflow:visible"><path id="path4239" d="M 8.7185878,4.0337352 L -2.2072895,0.016013256 L 8.7185884,-4.0017078 C 6.97309,-1.6296469 6.9831476,1.6157441 8.7185878,4.0337352 z" transform="matrix(-1.1,0,0,-1.1,-1.1,0)" style="font-size:12px;fill-rule:evenodd;stroke-width:.625;stroke-linejoin:round"/></marker><marker id="Arrow1Lend" orient="auto" refX="0" refY="0" style="overflow:visible"><path id="path4221" d="M 0,0 L 5,-5 L -12.5,0 L 5,5 L 0,0 z" transform="matrix(-0.8,0,0,-0.8,-10,0)" style="fill-rule:evenodd;stroke:#000;stroke-width:1pt;marker-start:none"/></marker></defs><metadata id="metadata7"/><g id="layer1" transform="translate(-522.12943,-486.16483)"><g id="g3339" transform="matrix(-1.1515275e-2,-0.9999337,0.9999337,-1.1515275e-2,-71.26051,1517.2781)"><path id="path3341" d="M 390,628 L 420,598" transform="translate(319.14847,267.35953)" style="fill:none;fill-rule:evenodd;stroke:#000;stroke-width:1px;stroke-linecap:butt;stroke-linejoin:miter;stroke-opacity:1"/><path id="path3343" d="M 310,663 A 5,5 0 1 1 300,663 A 5,5 0 1 1 310,663 z" transform="translate(404.14847,232.30923)" style="opacity:1;fill:#0f0;fill-opacity:1;fill-rule:nonzero;stroke:#000;stroke-width:2;stroke-linecap:butt;stroke-miterlimit:4;stroke-dasharray:none;stroke-dashoffset:0;stroke-opacity:1"/></g><g id="g3375" transform="matrix(0.4124957,-0.9109596,0.9109596,0.4124957,-344.40796,1094.1164)"><path id="path3377" d="M 390,628 L 420,598" transform="translate(319.14847,267.35953)" style="fill:none;fill-rule:evenodd;stroke:#000;stroke-width:1px;stroke-linecap:butt;stroke-linejoin:miter;stroke-opacity:1"/><path id="path3379" d="M 310,663 A 5,5 0 1 1 300,663 A 5,5 0 1 1 310,663 z" transform="translate(404.14847,232.30923)" style="opacity:1;fill:#0f0;fill-opacity:1;fill-rule:nonzero;stroke:#000;stroke-width:2;stroke-linecap:butt;stroke-miterlimit:4;stroke-dasharray:none;stroke-dashoffset:0;stroke-opacity:1"/></g><g id="g3333" transform="translate(-28.382725,-92.441992)"><path style="fill:none;fill-rule:evenodd;stroke:#000;stroke-width:1px;stroke-linecap:butt;stroke-linejoin:miter;stroke-opacity:1" id="path3335" d="M 390,628 L 420,598" transform="translate(319.14847,267.35953)"/><path style="opacity:1;fill:#0f0;fill-opacity:1;fill-rule:nonzero;stroke:#000;stroke-width:2;stroke-linecap:butt;stroke-miterlimit:4;stroke-dasharray:none;stroke-dashoffset:0;stroke-opacity:1" id="path3337" d="M 310,663 A 5,5 0 1 1 300,663 A 5,5 0 1 1 310,663 z" transform="translate(404.14847,232.30923)"/></g><g id="g3369" transform="matrix(-0.9997492,-2.2395377e-2,2.2395377e-2,-0.9997492,1588.7315,1427.0555)"><path id="path3371" d="M 390,628 L 420,598" transform="translate(319.14847,267.35953)" style="fill:none;fill-rule:evenodd;stroke:#000;stroke-width:1px;stroke-linecap:butt;stroke-linejoin:miter;stroke-opacity:1"/><path id="path3373" d="M 310,663 A 5,5 0 1 1 300,663 A 5,5 0 1 1 310,663 z" transform="translate(404.14847,232.30923)" style="opacity:1;fill:#0f0;fill-opacity:1;fill-rule:nonzero;stroke:#000;stroke-width:2;stroke-linecap:butt;stroke-miterlimit:4;stroke-dasharray:none;stroke-dashoffset:0;stroke-opacity:1"/></g><g id="g3363" transform="matrix(-0.7691568,0.6390601,-0.6390601,-0.7691568,1960.597,727.60892)"><path id="path3365" d="M 390,628 L 420,598" transform="translate(319.14847,267.35953)" style="fill:none;fill-rule:evenodd;stroke:#000;stroke-width:1px;stroke-linecap:butt;stroke-linejoin:miter;stroke-opacity:1"/><path id="path3367" d="M 310,663 A 5,5 0 1 1 300,663 A 5,5 0 1 1 310,663 z" transform="translate(404.14847,232.30923)" style="opacity:1;fill:#0f0;fill-opacity:1;fill-rule:nonzero;stroke:#000;stroke-width:2;stroke-linecap:butt;stroke-miterlimit:4;stroke-dasharray:none;stroke-dashoffset:0;stroke-opacity:1"/></g><g id="g3357" transform="matrix(-0.345534,0.9384062,-0.9384062,-0.345534,1854.3943,149.26737)"><path id="path3359" d="M 390,628 L 420,598" transform="translate(319.14847,267.35953)" style="fill:none;fill-rule:evenodd;stroke:#000;stroke-width:1px;stroke-linecap:butt;stroke-linejoin:miter;stroke-opacity:1"/><path id="path3361" d="M 310,663 A 5,5 0 1 1 300,663 A 5,5 0 1 1 310,663 z" transform="translate(404.14847,232.30923)" style="opacity:1;fill:#0f0;fill-opacity:1;fill-rule:nonzero;stroke:#000;stroke-width:2;stroke-linecap:butt;stroke-miterlimit:4;stroke-dasharray:none;stroke-dashoffset:0;stroke-opacity:1"/></g><g id="g3329" transform="matrix(0.9396567,-0.3421188,0.3421188,0.9396567,-258.60307,219.49866)"><path id="path3327" d="M 390,628 L 420,598" transform="translate(319.14847,267.35953)" style="fill:none;fill-rule:evenodd;stroke:#000;stroke-width:1px;stroke-linecap:butt;stroke-linejoin:miter;stroke-opacity:1"/><path id="path3273" d="M 310,663 A 5,5 0 1 1 300,663 A 5,5 0 1 1 310,663 z" transform="translate(404.14847,232.30923)" style="opacity:1;fill:#0f0;fill-opacity:1;fill-rule:nonzero;stroke:#000;stroke-width:2;stroke-linecap:butt;stroke-miterlimit:4;stroke-dasharray:none;stroke-dashoffset:0;stroke-opacity:1"/></g><g id="g3303" transform="translate(-146.56342,-82.45814)"><path id="path3295" d="M 630,573 A 60,25 0 1 1 510,573 A 60,25 0 1 1 630,573 z" transform="translate(319.14847,267.35953)" style="opacity:1;fill:#e0e0e0;fill-opacity:1;fill-rule:nonzero;stroke:#000;stroke-width:2;stroke-linecap:butt;stroke-miterlimit:4;stroke-dasharray:none;stroke-dashoffset:0;stroke-opacity:1"/><text id="text3275" x="889.421" y="845.325" xml:space="preserve" style="font-size:18px;font-style:normal;font-variant:normal;font-weight:400;font-stretch:normal;text-align:center;line-height:100%;writing-mode:lr-tb;text-anchor:middle;fill:#000;fill-opacity:1;stroke:none;stroke-width:1px;stroke-linecap:butt;stroke-linejoin:miter;stroke-opacity:1;font-family:Bitstream Vera Sans"><tspan id="tspan3277" x="889.421" y="845.325">gmail.com</tspan></text></g><path id="path3301" d="M 630,573 A 60,25 0 1 1 510,573 A 60,25 0 1 1 630,573 z" transform="matrix(0.8305556,0,0,0.8266667,510.45907,217.40681)" style="fill:#e0e0e0;fill-opacity:1;fill-rule:nonzero;stroke:#000;stroke-width:2.41368413;stroke-linecap:butt;stroke-miterlimit:4;stroke-dasharray:none;stroke-dashoffset:0;stroke-opacity:1"/><g id="g3313" transform="translate(-319.66664,-75)"><path id="path3299" d="M 630,573 A 60,25 0 1 1 510,573 A 60,25 0 1 1 630,573 z" transform="matrix(1.1694444,0,0,1,482.39847,57.35953)" style="opacity:1;fill:#e0e0e0;fill-opacity:1;fill-rule:nonzero;stroke:#000;stroke-width:1.84943974;stroke-linecap:butt;stroke-miterlimit:4;stroke-dasharray:none;stroke-dashoffset:0;stroke-opacity:1"/><text id="text3291" x="1148.384" y="634.807" xml:space="preserve" style="font-size:18px;font-style:normal;font-variant:normal;font-weight:400;font-stretch:normal;text-align:center;line-height:100%;writing-mode:lr-tb;text-anchor:middle;fill:#000;fill-opacity:1;stroke:none;stroke-width:1px;stroke-linecap:butt;stroke-linejoin:miter;stroke-opacity:1;font-family:Bitstream Vera Sans"><tspan id="tspan3293" x="1148.384" y="634.807">montague.net</tspan></text></g><g id="g3345" transform="matrix(0.9790468,0.2036355,-0.2036355,0.9790468,16.157495,-340.70268)"><path id="path3347" d="M 390,628 L 420,598" transform="translate(319.14847,267.35953)" style="fill:none;fill-rule:evenodd;stroke:#000;stroke-width:1px;stroke-linecap:butt;stroke-linejoin:miter;stroke-opacity:1"/><path id="path3349" d="M 310,663 A 5,5 0 1 1 300,663 A 5,5 0 1 1 310,663 z" transform="translate(404.14847,232.30923)" style="opacity:1;fill:#0f0;fill-opacity:1;fill-rule:nonzero;stroke:#000;stroke-width:2;stroke-linecap:butt;stroke-miterlimit:4;stroke-dasharray:none;stroke-dashoffset:0;stroke-opacity:1"/></g><g id="g3351" transform="matrix(0.186531,0.9824491,-0.9824491,0.186531,1285.5334,-253.25792)"><path id="path3353" d="M 390,628 L 420,598" transform="translate(319.14847,267.35953)" style="fill:none;fill-rule:evenodd;stroke:#000;stroke-width:1px;stroke-linecap:butt;stroke-linejoin:miter;stroke-opacity:1"/><path id="path3355" d="M 310,663 A 5,5 0 1 1 300,663 A 5,5 0 1 1 310,663 z" transform="translate(404.14847,232.30923)" style="opacity:1;fill:#0f0;fill-opacity:1;fill-rule:nonzero;stroke:#000;stroke-width:2;stroke-linecap:butt;stroke-miterlimit:4;stroke-dasharray:none;stroke-dashoffset:0;stroke-opacity:1"/></g><g id="g3308" transform="translate(-180,20)"><path style="opacity:1;fill:#e0e0e0;fill-opacity:1;fill-rule:nonzero;stroke:#000;stroke-width:2;stroke-linecap:butt;stroke-miterlimit:4;stroke-dasharray:none;stroke-dashoffset:0;stroke-opacity:1" id="path3297" d="M 630,573 A 60,25 0 1 1 510,573 A 60,25 0 1 1 630,573 z" transform="translate(219.14847,52.35953)"/><text id="text3287" x="789.421" y="630.325" xml:space="preserve" style="font-size:18px;font-style:normal;font-variant:normal;font-weight:400;font-stretch:normal;text-align:center;line-height:100%;writing-mode:lr-tb;text-anchor:middle;fill:#000;fill-opacity:1;stroke:none;stroke-width:1px;stroke-linecap:butt;stroke-linejoin:miter;stroke-opacity:1;font-family:Bitstream Vera Sans"><tspan id="tspan3289" x="789.421" y="630.325">capulet.com</tspan></text></g><g id="g4550"><g id="g3395" transform="matrix(-0.9936138,0.1128341,-0.1128341,-0.9936138,1839.8215,1465.4992)"><path style="fill:none;fill-rule:evenodd;stroke:#000;stroke-width:1px;stroke-linecap:butt;stroke-linejoin:miter;stroke-opacity:1" id="path3397" d="M 390,628 L 420,598" transform="translate(319.14847,267.35953)"/><path style="opacity:1;fill:#ff0;fill-opacity:1;fill-rule:nonzero;stroke:#000;stroke-width:2;stroke-linecap:butt;stroke-miterlimit:4;stroke-dasharray:none;stroke-dashoffset:0;stroke-opacity:1" id="path3399" d="M 310,663 A 5,5 0 1 1 300,663 A 5,5 0 1 1 310,663 z" transform="translate(404.14847,232.30923)"/></g><g id="g3401" transform="matrix(-1.0958922e-2,-0.9999399,0.9999399,-1.0958922e-2,146.66425,1444.2222)"><path style="fill:none;fill-rule:evenodd;stroke:#000;stroke-width:1px;stroke-linecap:butt;stroke-linejoin:miter;stroke-opacity:1" id="path3403" d="M 390,628 L 420,598" transform="translate(319.14847,267.35953)"/><path style="opacity:1;fill:#ff0;fill-opacity:1;fill-rule:nonzero;stroke:#000;stroke-width:2;stroke-linecap:butt;stroke-miterlimit:4;stroke-dasharray:none;stroke-dashoffset:0;stroke-opacity:1" id="path3405" d="M 310,663 A 5,5 0 1 1 300,663 A 5,5 0 1 1 310,663 z" transform="translate(404.14847,232.30923)"/></g><g id="g3407" transform="matrix(-0.4938481,-0.8695482,0.8695482,-0.4938481,611.70372,1765.4409)"><path style="fill:none;fill-rule:evenodd;stroke:#000;stroke-width:1px;stroke-linecap:butt;stroke-linejoin:miter;stroke-opacity:1" id="path3409" d="M 390,628 L 420,598" transform="translate(319.14847,267.35953)"/><path style="opacity:1;fill:#ff0;fill-opacity:1;fill-rule:nonzero;stroke:#000;stroke-width:2;stroke-linecap:butt;stroke-miterlimit:4;stroke-dasharray:none;stroke-dashoffset:0;stroke-opacity:1" id="path3411" d="M 310,663 A 5,5 0 1 1 300,663 A 5,5 0 1 1 310,663 z" transform="translate(404.14847,232.30923)"/></g><g id="g3413" transform="matrix(-0.9255174,-0.3787052,0.3787052,-0.9255174,1361.7919,1770.6485)"><path style="fill:none;fill-rule:evenodd;stroke:#000;stroke-width:1px;stroke-linecap:butt;stroke-linejoin:miter;stroke-opacity:1" id="path3415" d="M 390,628 L 420,598" transform="translate(319.14847,267.35953)"/><path style="opacity:1;fill:#ff0;fill-opacity:1;fill-rule:nonzero;stroke:#000;stroke-width:2;stroke-linecap:butt;stroke-miterlimit:4;stroke-dasharray:none;stroke-dashoffset:0;stroke-opacity:1" id="path3417" d="M 310,663 A 5,5 0 1 1 300,663 A 5,5 0 1 1 310,663 z" transform="translate(404.14847,232.30923)"/></g></g><g id="g3266" transform="translate(92.22727,-118.54544)"><path style="fill:red;fill-opacity:1;fill-rule:nonzero;stroke:#000;stroke-width:7.60903883;stroke-linecap:butt;stroke-miterlimit:4;stroke-dasharray:none;stroke-dashoffset:0;stroke-opacity:1" id="path2436" d="M 260,323 A 35,35 0 1 1 190,323 A 35,35 0 1 1 260,323 z" transform="matrix(0.2628453,0,0,0.2628453,815.00828,724.73321)"/><rect style="fill:#e0ffff;fill-opacity:1;fill-rule:nonzero;stroke:#000;stroke-width:1.99999988;stroke-linecap:butt;stroke-miterlimit:4;stroke-dasharray:none;stroke-dashoffset:0;stroke-opacity:1" id="rect2438" width="28.545" height="9.455" x="-823.905" y="886.921" transform="matrix(0,-1,1,0,0,0)"/><path id="path2458" d="M 260,323 A 35,35 0 1 1 190,323 A 35,35 0 1 1 260,323 z" transform="matrix(0.2628453,0,0,0.2628453,850.00828,724.73321)" style="fill:#00f;fill-opacity:1;fill-rule:nonzero;stroke:#000;stroke-width:7.60903883;stroke-linecap:butt;stroke-miterlimit:4;stroke-dasharray:none;stroke-dashoffset:0;stroke-opacity:1"/></g><path style="fill:none;fill-rule:evenodd;stroke:#000;stroke-width:2;stroke-linecap:butt;stroke-linejoin:miter;marker-start:url(#Arrow1Mstart);marker-end:url(#Arrow1Mend);stroke-miterlimit:4;stroke-dasharray:none;stroke-opacity:1" id="path3438" d="M 350,388 C 350,388 600,418 600,418" transform="translate(319.14847,267.35953)"/><path id="path4532" d="M 550,308 C 550,308 610,408 610,408" transform="translate(319.14847,267.35953)" style="fill:none;fill-rule:evenodd;stroke:#000;stroke-width:2;stroke-linecap:butt;stroke-linejoin:miter;marker-start:url(#Arrow1Mstart);marker-end:url(#Arrow1Mend);stroke-miterlimit:4;stroke-dasharray:none;stroke-opacity:1"/><path style="fill:none;fill-rule:evenodd;stroke:#000;stroke-width:2;stroke-linecap:butt;stroke-linejoin:miter;marker-start:url(#Arrow1Mstart);marker-end:url(#Arrow1Mend);stroke-miterlimit:4;stroke-dasharray:none;stroke-opacity:1" id="path4534" d="M 460,308 C 460,308 330,358 330,358" transform="translate(319.14847,267.35953)"/><path id="path4536" d="M 610,428 C 610,428 480,478 480,478" transform="translate(319.14847,267.35953)" style="fill:none;fill-rule:evenodd;stroke:#000;stroke-width:2;stroke-linecap:butt;stroke-linejoin:miter;marker-start:url(#Arrow1Mstart);marker-end:url(#Arrow1Mend);stroke-miterlimit:4;stroke-dasharray:none;stroke-opacity:1"/></g></svg>