<svg xmlns="http://www.w3.org/2000/svg" xmlns:svg="http://www.w3.org/2000/svg" id="svg2" width="571.888" height="459.242" version="1.0"><defs id="defs4"><marker id="Arrow1Send" orient="auto" refX="0" refY="0" style="overflow:visible"><path id="path4525" d="M 0,0 L 5,-5 L -12.5,0 L 5,5 L 0,0 z" transform="matrix(-0.2,0,0,-0.2,-1.2,0)" style="fill-rule:evenodd;stroke:#000;stroke-width:1pt;marker-start:none"/></marker><marker id="Arrow1Sstart" orient="auto" refX="0" refY="0" style="overflow:visible"><path id="path4522" d="M 0,0 L 5,-5 L -12.5,0 L 5,5 L 0,0 z" transform="matrix(0.2,0,0,0.2,1.2,0)" style="fill-rule:evenodd;stroke:#000;stroke-width:1pt;marker-start:none"/></marker><marker id="Arrow1Mstart" orient="auto" refX="0" refY="0" style="overflow:visible"><path id="path4516" d="M 0,0 L 5,-5 L -12.5,0 L 5,5 L 0,0 z" transform="matrix(0.4,0,0,0.4,4,0)" style="fill-rule:evenodd;stroke:#000;stroke-width:1pt;marker-start:none"/></marker><marker id="Arrow1Mend" orient="auto" refX="0" refY="0" style="overflow:visible"><path id="path4227" d="M 0,0 L 5,-5 L -12.5,0 L 5,5 L 0,0 z" transform="matrix(-0.4,0,0,-0.4,-4,0)" style="fill-rule:evenodd;stroke:#000;stroke-width:1pt;marker-start:none"/></marker><marker id="Arrow2Lend" orient="auto" refX="0" refY="0" style="overflow:visible"><path id="path4239" d="M 8.7185878,4.0337352 L -2.2072895,0.016013256 L 8.7185884,-4.0017078 C 6.97309,-1.6296469 6.9831476,1.6157441 8.7185878,4.0337352 z" transform="matrix(-1.1,0,0,-1.1,-1.1,0)" style="font-size:12px;fill-rule:evenodd;stroke-width:.625;stroke-linejoin:round"/></marker><marker id="Arrow1Lend" orient="auto" refX="0" refY="0" style="overflow:visible"><path id="path4221" d="M 0,0 L 5,-5 L -12.5,0 L 5,5 L 0,0 z" transform="matrix(-0.8,0,0,-0.8,-10,0)" style="fill-rule:evenodd;stroke:#000;stroke-width:1pt;marker-start:none"/></marker></defs><metadata id="metadata7"/><g id="layer1" transform="translate(-319.14847,-267.35953)"><rect style="opacity:1;fill:#e0ffff;fill-opacity:1;fill-rule:nonzero;stroke:#000;stroke-width:2;stroke-linecap:butt;stroke-miterlimit:4;stroke-dasharray:none;stroke-dashoffset:0;stroke-opacity:1" id="rect3300" width="569.888" height="230" x="320.148" y="472.88"/><rect style="opacity:1;fill:#fff;fill-opacity:1;fill-rule:nonzero;stroke:#000;stroke-width:1.99999988;stroke-linecap:butt;stroke-miterlimit:4;stroke-dasharray:none;stroke-dashoffset:0;stroke-opacity:1" id="rect3286" width="412.824" height="160" x="355.12" y="522.88"/><flowRoot id="flowRoot12116" xml:space="preserve" style="font-size:28px;font-style:normal;font-variant:normal;font-weight:400;font-stretch:normal;text-align:center;line-height:100%;writing-mode:lr-tb;text-anchor:middle;fill:#000;fill-opacity:1;stroke:none;stroke-width:1px;stroke-linecap:butt;stroke-linejoin:miter;stroke-opacity:1;font-family:Bitstream Vera Sans"><flowRegion id="flowRegion12118"><rect id="rect12120" width="160" height="136" x="205" y="312"/></flowRegion><flowPara id="flowPara12122"/></flowRoot><flowRoot id="flowRoot12171" xml:space="preserve" style="font-size:28px;font-style:normal;font-variant:normal;font-weight:400;font-stretch:normal;text-align:center;line-height:100%;writing-mode:lr-tb;text-anchor:middle;fill:#000;fill-opacity:1;stroke:none;stroke-width:1px;stroke-linecap:butt;stroke-linejoin:miter;stroke-opacity:1;font-family:Bitstream Vera Sans"><flowRegion id="flowRegion12173"><rect id="rect12175" width="247" height="166" x="85" y="590"/></flowRegion><flowPara id="flowPara12177"/></flowRoot><g id="g2432" transform="matrix(0.4208333,0,0,0.4208333,340.87833,454.788)" style="stroke-width:4.75247574;stroke-miterlimit:4;stroke-dasharray:none"><rect style="fill:red;fill-opacity:1;stroke:#000;stroke-width:4.75247574;stroke-miterlimit:4;stroke-dasharray:none;stroke-dashoffset:0;stroke-opacity:1" id="rect2434" width="200" height="33" x="220" y="368"/><path style="fill:none;fill-rule:evenodd;stroke:#000;stroke-width:4.75247574;stroke-linecap:butt;stroke-linejoin:miter;stroke-miterlimit:4;stroke-dasharray:none;stroke-opacity:1" id="path2436" d="M 250.5,368.06594 C 250.5,400.067 250.5,400.067 250.5,400.067 L 250.5,400.067"/><path id="path2438" d="M 280,368 C 280,400.00106 280,400.00106 280,400.00106 L 280,400.00106" style="fill:none;fill-rule:evenodd;stroke:#000;stroke-width:4.75247574;stroke-linecap:butt;stroke-linejoin:miter;stroke-miterlimit:4;stroke-dasharray:none;stroke-opacity:1"/><path style="fill:none;fill-rule:evenodd;stroke:#000;stroke-width:4.75247574;stroke-linecap:butt;stroke-linejoin:miter;stroke-miterlimit:4;stroke-dasharray:none;stroke-opacity:1" id="path2440" d="M 310,368 C 310,400.00106 310,400.00106 310,400.00106 L 310,400.00106"/><path id="path2442" d="M 340,368 C 340,400.00106 340,400.00106 340,400.00106 L 340,400.00106" style="fill:none;fill-rule:evenodd;stroke:#000;stroke-width:4.75247574;stroke-linecap:butt;stroke-linejoin:miter;stroke-miterlimit:4;stroke-dasharray:none;stroke-opacity:1"/></g><text style="font-size:28px;font-style:normal;font-variant:normal;font-weight:400;font-stretch:normal;text-align:start;line-height:100%;writing-mode:lr-tb;text-anchor:start;fill:#000;fill-opacity:1;stroke:none;stroke-width:1px;stroke-linecap:butt;stroke-linejoin:miter;stroke-opacity:1;font-family:Bitstream Vera Sans" id="text2444" x="525.12" y="622.88" xml:space="preserve"><tspan id="tspan2446" x="525.12" y="622.88" style="font-size:18px">&quot;romeo@montague.net&quot;</tspan></text><g id="g2448" transform="matrix(0.4208333,0,0,0.4208333,340.87833,488.01335)" style="stroke-width:4.75247574;stroke-miterlimit:4;stroke-dasharray:none"><rect id="rect2450" width="200" height="33" x="220" y="368" style="fill:red;fill-opacity:1;stroke:#000;stroke-width:4.75247574;stroke-miterlimit:4;stroke-dasharray:none;stroke-dashoffset:0;stroke-opacity:1"/><path id="path2452" d="M 250.5,368.06594 C 250.5,400.067 250.5,400.067 250.5,400.067 L 250.5,400.067" style="fill:none;fill-rule:evenodd;stroke:#000;stroke-width:4.75247574;stroke-linecap:butt;stroke-linejoin:miter;stroke-miterlimit:4;stroke-dasharray:none;stroke-opacity:1"/><path style="fill:none;fill-rule:evenodd;stroke:#000;stroke-width:4.75247574;stroke-linecap:butt;stroke-linejoin:miter;stroke-miterlimit:4;stroke-dasharray:none;stroke-opacity:1" id="path2454" d="M 280,368 C 280,400.00106 280,400.00106 280,400.00106 L 280,400.00106"/><path id="path2456" d="M 310,368 C 310,400.00106 310,400.00106 310,400.00106 L 310,400.00106" style="fill:none;fill-rule:evenodd;stroke:#000;stroke-width:4.75247574;stroke-linecap:butt;stroke-linejoin:miter;stroke-miterlimit:4;stroke-dasharray:none;stroke-opacity:1"/><path style="fill:none;fill-rule:evenodd;stroke:#000;stroke-width:4.75247574;stroke-linecap:butt;stroke-linejoin:miter;stroke-miterlimit:4;stroke-dasharray:none;stroke-opacity:1" id="path2458" d="M 340,368 C 340,400.00106 340,400.00106 340,400.00106 L 340,400.00106"/></g><text id="text2460" x="525.12" y="656.105" xml:space="preserve" style="font-size:28px;font-style:normal;font-variant:normal;font-weight:400;font-stretch:normal;text-align:start;line-height:100%;writing-mode:lr-tb;text-anchor:start;fill:#000;fill-opacity:1;stroke:none;stroke-width:1px;stroke-linecap:butt;stroke-linejoin:miter;stroke-opacity:1;font-family:Bitstream Vera Sans"><tspan style="font-size:18px" id="tspan2462" x="525.12" y="656.105">&quot;juliet@capulet.com&quot;</tspan></text><text id="text2472" x="425.12" y="567.15" xml:space="preserve" style="font-size:28px;font-style:normal;font-variant:normal;font-weight:400;font-stretch:normal;text-align:start;line-height:100%;writing-mode:lr-tb;text-anchor:start;fill:#000;fill-opacity:1;stroke:none;stroke-width:1px;stroke-linecap:butt;stroke-linejoin:miter;stroke-opacity:1;font-family:Bitstream Vera Sans"><tspan style="font-size:18px" id="tspan2474" x="425.12" y="567.15">&quot;pubsub&quot; exchange</tspan></text><path id="path2476" d="M 395.12,572.88 C 395.12,592.88 400,608 428.12,615.88" style="fill:none;fill-rule:evenodd;stroke:#000;stroke-width:1;stroke-linecap:butt;stroke-linejoin:miter;marker-end:url(#Arrow1Mend);stroke-miterlimit:4;stroke-dasharray:none;stroke-opacity:1"/><path style="fill:none;fill-rule:evenodd;stroke:#000;stroke-width:1;stroke-linecap:butt;stroke-linejoin:miter;marker-end:url(#Arrow1Mend);stroke-miterlimit:4;stroke-dasharray:none;stroke-opacity:1" id="path3284" d="M 395.12,572.88 C 395.12,592.88 400,628 428.12,646.88"/><text style="font-size:18px;font-style:normal;font-variant:normal;font-weight:400;font-stretch:normal;text-align:center;line-height:100%;writing-mode:lr-tb;text-anchor:middle;fill:#000;fill-opacity:1;stroke:none;stroke-width:1px;stroke-linecap:butt;stroke-linejoin:miter;stroke-opacity:1;font-family:Bitstream Vera Sans" id="text3292" x="686.112" y="512.88" xml:space="preserve"><tspan id="tspan3294" x="686.112" y="512.88" style="font-size:14px">mod_rabbitmq gateway</tspan></text><text style="font-size:18px;font-style:normal;font-variant:normal;font-weight:400;font-stretch:normal;text-align:center;line-height:100%;writing-mode:lr-tb;text-anchor:middle;fill:#000;fill-opacity:1;stroke:none;stroke-width:1px;stroke-linecap:butt;stroke-linejoin:miter;stroke-opacity:1;font-family:Bitstream Vera Sans" id="text3296" x="816.508" y="723.69" xml:space="preserve"><tspan id="tspan3298" x="816.508" y="723.69" style="font-size:14px">&quot;dev.rabbitmq.com&quot;</tspan></text><g id="g3369" transform="translate(239.18736,119.99625)"><rect id="rect3302" width="139.411" height="140.008" x="260.589" y="168" style="opacity:1;fill:#e0ffff;fill-opacity:1;fill-rule:nonzero;stroke:#000;stroke-width:2;stroke-linecap:butt;stroke-miterlimit:4;stroke-dasharray:none;stroke-dashoffset:0;stroke-opacity:1"/><text style="font-size:18px;font-style:normal;font-variant:normal;font-weight:400;font-stretch:normal;text-align:end;line-height:100%;writing-mode:lr-tb;text-anchor:end;fill:#000;fill-opacity:1;stroke:none;stroke-width:1px;stroke-linecap:butt;stroke-linejoin:miter;stroke-opacity:1;font-family:Bitstream Vera Sans" id="text3304" x="402.36" y="158" xml:space="preserve"><tspan id="tspan3306" x="402.36" y="158" style="font-size:14px;text-align:end;text-anchor:end">&quot;montague.net&quot;</tspan></text><g id="g3322" transform="translate(-220.03886,-30.329553)"><path style="opacity:1;fill:#e0e0e0;fill-opacity:1;fill-rule:nonzero;stroke:#000;stroke-width:1.48760331;stroke-linecap:butt;stroke-miterlimit:4;stroke-dasharray:none;stroke-dashoffset:0;stroke-opacity:1" id="path3310" d="M 570,258 A 30,30 0 1 1 510,258 A 30,30 0 1 1 570,258 z" transform="matrix(1.3444444,0,0,1.3444444,-175.66667,-78.533333)"/><text style="font-size:18px;font-style:normal;font-variant:normal;font-weight:400;font-stretch:normal;text-align:center;line-height:100%;writing-mode:lr-tb;text-anchor:middle;fill:#000;fill-opacity:1;stroke:none;stroke-width:1px;stroke-linecap:butt;stroke-linejoin:miter;stroke-opacity:1;font-family:Bitstream Vera Sans" id="text3312" x="550.004" y="273.246" xml:space="preserve"><tspan id="tspan3314" x="550.004" y="273.246">romeo</tspan></text></g></g><g id="g3360"><rect style="opacity:1;fill:#e0ffff;fill-opacity:1;fill-rule:nonzero;stroke:#000;stroke-width:2;stroke-linecap:butt;stroke-miterlimit:4;stroke-dasharray:none;stroke-dashoffset:0;stroke-opacity:1" id="rect3332" width="139.411" height="140.008" x="659.961" y="287.996"/><g id="g3327" transform="translate(-40.666664,70)"><path id="path3320" d="M 570,258 A 30,30 0 1 1 510,258 A 30,30 0 1 1 570,258 z" transform="matrix(1.3444444,0,0,1.3444444,44.333356,-58.866655)" style="opacity:1;fill:#0f0;fill-opacity:1;fill-rule:nonzero;stroke:#000;stroke-width:1.48760331;stroke-linecap:butt;stroke-miterlimit:4;stroke-dasharray:none;stroke-dashoffset:0;stroke-opacity:1"/><text style="font-size:18px;font-style:normal;font-variant:normal;font-weight:400;font-stretch:normal;text-align:center;line-height:100%;writing-mode:lr-tb;text-anchor:middle;fill:#000;fill-opacity:1;stroke:none;stroke-width:1px;stroke-linecap:butt;stroke-linejoin:miter;stroke-opacity:1;font-family:Bitstream Vera Sans" id="text3316" x="770.716" y="292.966" xml:space="preserve"><tspan id="tspan3318" x="770.716" y="292.966">juliet</tspan></text></g><text id="text3334" x="801.733" y="277.996" xml:space="preserve" style="font-size:18px;font-style:normal;font-variant:normal;font-weight:400;font-stretch:normal;text-align:end;line-height:100%;writing-mode:lr-tb;text-anchor:end;fill:#000;fill-opacity:1;stroke:none;stroke-width:1px;stroke-linecap:butt;stroke-linejoin:miter;stroke-opacity:1;font-family:Bitstream Vera Sans"><tspan style="font-size:14px;text-align:end;text-anchor:end" id="tspan3336" x="801.733" y="277.996">&quot;capulet.com&quot;</tspan></text></g><g id="g3346" transform="matrix(0.4474491,0,0,0.4406952,628.14252,200.36251)"><g id="g3348"><path style="fill:#80aaff;fill-opacity:1;stroke:#000;stroke-width:1.10925722;stroke-miterlimit:4;stroke-dasharray:none;stroke-dashoffset:0;stroke-opacity:1" id="path3350" d="M 129.76111,334.82123 A 11.578684,11.778316 0 1 1 106.60374,334.82123 A 11.578684,11.778316 0 1 1 129.76111,334.82123 z" transform="matrix(4.0641135,0,0,4.0564642,-6.8284,-476.19033)"/><text style="font-size:64px;font-style:normal;font-variant:normal;font-weight:400;font-stretch:normal;text-align:start;line-height:100%;writing-mode:lr-tb;text-anchor:start;fill:#000;fill-opacity:1;stroke:none;stroke-width:1px;stroke-linecap:butt;stroke-linejoin:miter;stroke-opacity:1;font-family:Bitstream Vera Sans;-inkscape-font-specification:Bitstream Vera Sans" id="text3352" x="449.118" y="906" xml:space="preserve"><tspan id="tspan3354" x="449.118" y="906" style="font-size:64px;font-style:normal;font-variant:normal;font-weight:400;font-stretch:normal;text-align:start;line-height:100%;writing-mode:lr-tb;text-anchor:start;font-family:Bitstream Vera Sans;-inkscape-font-specification:Bitstream Vera Sans">C</tspan></text></g></g><path id="path3356" d="M 718,650 C 753,652 810,648 838,612" style="fill:none;fill-rule:evenodd;stroke:#000;stroke-width:1;stroke-linecap:butt;stroke-linejoin:miter;marker-end:url(#Arrow1Mend);stroke-miterlimit:4;stroke-dasharray:none;stroke-opacity:1"/><path id="path3358" d="M 840,568 C 840,368 830,358 770,358" style="fill:none;fill-rule:evenodd;stroke:#000;stroke-width:1;stroke-linecap:butt;stroke-linejoin:miter;marker-end:url(#Arrow1Mend);stroke-miterlimit:4;stroke-dasharray:none;stroke-opacity:1"/><path style="fill:none;fill-rule:evenodd;stroke:#000;stroke-width:2;stroke-linecap:butt;stroke-linejoin:miter;marker-end:url(#Arrow1Mend);stroke-miterlimit:4;stroke-dasharray:none;stroke-opacity:1" id="path3378" d="M 399.14847,383.88001 C 399.14847,433.88001 399.14847,493.88001 399.14847,541.38001"/><g id="g2464" transform="matrix(0.3512,0,0,0.3512,229.6864,366.2264)"><rect style="fill:#0f0;fill-opacity:1;stroke:#000;stroke-width:5.6947608;stroke-miterlimit:4;stroke-dasharray:none;stroke-dashoffset:0;stroke-opacity:1" id="rect2466" width="100" height="100" x="428" y="503"/><text style="font-size:64px;font-style:normal;font-variant:normal;font-weight:400;font-stretch:normal;text-align:start;line-height:100%;writing-mode:lr-tb;text-anchor:start;fill:#000;fill-opacity:1;stroke:none;stroke-width:1px;stroke-linecap:butt;stroke-linejoin:miter;stroke-opacity:1;font-family:Bitstream Vera Sans" id="text2468" x="456" y="577" xml:space="preserve"><tspan id="tspan2470" x="456" y="577">X</tspan></text></g><text style="font-size:18px;font-style:normal;font-variant:normal;font-weight:400;font-stretch:normal;text-align:center;line-height:100%;writing-mode:lr-tb;text-anchor:middle;fill:#000;fill-opacity:1;stroke:none;stroke-width:1px;stroke-linecap:butt;stroke-linejoin:miter;stroke-opacity:1;font-family:Bitstream Vera Sans" id="text3380" x="399.254" y="333.88" xml:space="preserve"><tspan id="tspan3382" x="399.254" y="333.88" style="font-size:18px">deliveries</tspan><tspan id="tspan3386" x="399.254" y="351.88" style="font-size:18px">from AMQP</tspan><tspan id="tspan3384" x="399.254" y="369.88" style="font-size:18px">and XMPP</tspan></text><g id="g10907" transform="matrix(0.625,0,0,0.625,189.14847,-103.61999)"><path id="path10927" d="M 590,868 L 610,848 L 630,868 L 590,868 z" style="fill:#f0f;fill-opacity:1;fill-rule:evenodd;stroke:none;stroke-width:1px;stroke-linecap:butt;stroke-linejoin:miter;stroke-opacity:1"/><rect id="rect10929" width="20" height="40" x="600" y="868" style="fill:#f0f;fill-opacity:1;stroke:none;stroke-width:4;stroke-miterlimit:4;stroke-dasharray:none;stroke-dashoffset:0;stroke-opacity:1"/><path style="fill:#f0f;fill-opacity:1;fill-rule:evenodd;stroke:none;stroke-width:1px;stroke-linecap:butt;stroke-linejoin:miter;stroke-opacity:1" id="path10931" d="M 590,908 L 610,928 L 630,908 L 590,908 z"/><rect id="rect10354" width="4" height="40" x="604" y="868" style="opacity:1;fill:#fff;fill-opacity:1;fill-rule:nonzero;stroke:none;stroke-width:4;stroke-miterlimit:4;stroke-dasharray:4,4;stroke-dashoffset:0;stroke-opacity:1"/><rect style="opacity:1;fill:#fff;fill-opacity:1;fill-rule:nonzero;stroke:none;stroke-width:4;stroke-miterlimit:4;stroke-dasharray:4,4;stroke-dashoffset:0;stroke-opacity:1" id="rect10905" width="4" height="40" x="612" y="868"/></g><g id="g4116" transform="matrix(0.625,0,0,0.625,349.14847,-103.61999)"><path style="fill:#f0f;fill-opacity:1;fill-rule:evenodd;stroke:none;stroke-width:1px;stroke-linecap:butt;stroke-linejoin:miter;stroke-opacity:1" id="path4118" d="M 590,868 L 610,848 L 630,868 L 590,868 z"/><rect style="fill:#f0f;fill-opacity:1;stroke:none;stroke-width:4;stroke-miterlimit:4;stroke-dasharray:none;stroke-dashoffset:0;stroke-opacity:1" id="rect4120" width="20" height="40" x="600" y="868"/><path id="path4122" d="M 590,908 L 610,928 L 630,908 L 590,908 z" style="fill:#f0f;fill-opacity:1;fill-rule:evenodd;stroke:none;stroke-width:1px;stroke-linecap:butt;stroke-linejoin:miter;stroke-opacity:1"/><rect style="opacity:1;fill:#fff;fill-opacity:1;fill-rule:nonzero;stroke:none;stroke-width:4;stroke-miterlimit:4;stroke-dasharray:4,4;stroke-dashoffset:0;stroke-opacity:1" id="rect4124" width="4" height="40" x="604" y="868"/><rect id="rect4126" width="4" height="40" x="612" y="868" style="opacity:1;fill:#fff;fill-opacity:1;fill-rule:nonzero;stroke:none;stroke-width:4;stroke-miterlimit:4;stroke-dasharray:4,4;stroke-dashoffset:0;stroke-opacity:1"/></g><text style="font-size:18px;font-style:normal;font-variant:normal;font-weight:400;font-stretch:normal;text-align:center;line-height:100%;writing-mode:lr-tb;text-anchor:middle;fill:#000;fill-opacity:1;stroke:none;stroke-width:1px;stroke-linecap:butt;stroke-linejoin:miter;stroke-opacity:1;font-family:Bitstream Vera Sans" id="text4128" x="648.967" y="456.599" xml:space="preserve"><tspan id="tspan4130" x="648.967" y="456.599" style="font-size:14px">S2S connections</tspan></text></g></svg>